<?xml version="1.0" standalone="no"?>
<!DOCTYPE svg PUBLIC "-//W3C//DTD SVG 20010904//EN"
 "http://www.w3.org/TR/2001/REC-SVG-20010904/DTD/svg10.dtd">
<svg version="1.0" xmlns="http://www.w3.org/2000/svg"
 width="869.000000pt" height="287.000000pt" viewBox="0 0 869.000000 287.000000"
 preserveAspectRatio="xMidYMid meet">

<g transform="translate(0.000000,287.000000) scale(0.100000,-0.100000)"
fill="#ffff00" stroke="none">
<path d="M1495 2728 c-2 -7 -5 -22 -7 -33 -3 -16 -12 -21 -51 -23 l-47 -3 0
-175 0 -174 215 0 215 0 0 175 0 175 -45 0 c-41 0 -45 2 -45 24 0 33 -25 53
-45 36 -8 -7 -15 -23 -15 -36 0 -23 -3 -24 -65 -24 -61 0 -65 1 -65 23 0 36
-35 63 -45 35z m3 -180 c3 -26 1 -28 -32 -28 -33 0 -36 2 -36 31 0 28 2 30 33
27 27 -2 33 -8 35 -30z m92 2 c0 -28 -3 -30 -35 -30 -32 0 -35 2 -35 30 0 28
3 30 35 30 32 0 35 -2 35 -30z m100 0 c0 -28 -3 -30 -35 -30 -32 0 -35 2 -35
30 0 28 3 30 35 30 32 0 35 -2 35 -30z m90 0 c0 -27 -3 -30 -30 -30 -27 0 -30
3 -30 30 0 27 3 30 30 30 27 0 30 -3 30 -30z m-282 -82 c-2 -18 -11 -24 -35
-26 -30 -3 -33 -1 -33 22 0 23 4 26 36 26 31 0 35 -3 32 -22z m92 -4 c0 -23
-3 -25 -32 -22 -25 2 -34 8 -36 26 -3 19 1 22 32 22 32 0 36 -3 36 -26z m100
1 c0 -22 -4 -25 -35 -25 -31 0 -35 3 -35 25 0 22 4 25 35 25 31 0 35 -3 35
-25z m90 0 c0 -21 -5 -25 -30 -25 -25 0 -30 4 -30 25 0 21 5 25 30 25 25 0 30
-4 30 -25z m-282 -77 c3 -26 1 -28 -32 -28 -33 0 -36 2 -36 31 0 28 2 30 33
27 27 -2 33 -8 35 -30z m92 2 c0 -28 -3 -30 -35 -30 -32 0 -35 2 -35 30 0 28
3 30 35 30 32 0 35 -2 35 -30z m100 0 c0 -28 -3 -30 -35 -30 -32 0 -35 2 -35
30 0 28 3 30 35 30 32 0 35 -2 35 -30z m90 0 c0 -27 -3 -30 -30 -30 -27 0 -30
3 -30 30 0 27 3 30 30 30 27 0 30 -3 30 -30z"/>
<path d="M7054 2729 c-18 -5 -46 -26 -64 -46 -31 -35 -32 -40 -27 -99 3 -49
17 -88 60 -177 30 -63 59 -117 65 -121 14 -8 105 175 126 255 18 65 18 67 -2
112 -28 63 -93 94 -158 76z m70 -95 c22 -21 20 -47 -4 -69 -41 -37 -102 24
-64 66 21 23 47 24 68 3z"/>
<path d="M4167 2679 c-25 -14 -39 -56 -32 -91 8 -36 16 -35 39 3 10 17 38 43
62 59 34 21 40 29 28 34 -24 9 -77 7 -97 -5z"/>
<path d="M4442 2683 c-8 -3 4 -16 30 -33 24 -15 52 -42 63 -59 25 -38 32 -39
40 -3 7 36 -8 78 -34 91 -20 11 -76 13 -99 4z"/>
<path d="M4275 2641 c-90 -40 -134 -141 -103 -232 28 -84 95 -132 184 -132 85
0 154 50 182 132 42 120 -54 251 -183 251 -22 0 -58 -9 -80 -19z m171 -31
c107 -67 103 -227 -7 -290 -80 -45 -192 -14 -233 65 -81 155 91 317 240 225z"/>
<path d="M4297 2523 c-3 -5 7 -22 23 -38 l28 -27 58 19 c32 11 59 24 61 30 2
6 -23 1 -55 -10 l-59 -21 -25 29 c-14 16 -28 24 -31 18z"/>
<path d="M467 2386 c-63 -23 -115 -64 -139 -109 l-23 -42 -3 -913 c-2 -622 1
-926 8 -953 15 -54 61 -103 128 -136 l57 -28 1082 -3 c1074 -2 1083 -2 1144
18 79 27 123 60 148 114 21 42 21 55 21 969 0 627 -3 935 -11 954 -17 46 -79
102 -136 123 -50 19 -79 20 -423 20 -315 0 -370 -2 -370 -14 0 -12 57 -15 368
-18 l367 -3 60 -30 c37 -19 69 -43 82 -64 l23 -34 0 -940 0 -940 -43 -42 c-79
-80 -12 -76 -1228 -73 l-1075 3 -59 30 c-46 23 -64 40 -82 74 l-23 44 0 909
c0 997 -3 948 61 1002 72 61 70 61 482 64 319 3 377 5 377 18 0 20 -735 20
-793 0z"/>
<path d="M3205 2384 c-57 -20 -114 -70 -136 -118 -18 -39 -19 -87 -19 -952 0
-501 3 -926 6 -943 9 -46 75 -115 136 -142 l53 -24 1100 0 1100 0 53 24 c61
27 127 96 136 142 3 17 6 442 6 943 0 1024 4 958 -76 1024 -72 60 -89 62 -499
62 -316 0 -372 -2 -372 -14 0 -13 57 -15 371 -18 l371 -3 58 -28 c43 -21 63
-39 82 -71 l25 -43 0 -917 c0 -770 -2 -922 -14 -951 -19 -44 -84 -91 -147
-104 -70 -15 -2118 -15 -2188 0 -63 13 -128 60 -147 104 -12 29 -14 181 -14
951 l0 917 25 43 c19 32 39 50 82 71 l58 28 373 3 c315 3 372 6 372 18 0 21
-735 19 -795 -2z"/>
<path d="M5946 2380 c-57 -22 -113 -71 -132 -117 -12 -27 -14 -193 -14 -960 0
-914 0 -927 21 -969 25 -54 69 -87 148 -114 61 -20 70 -20 1144 -18 l1082 3
57 28 c66 33 113 81 127 134 15 51 15 1813 1 1864 -16 58 -51 100 -110 133
l-55 31 -387 3 c-337 2 -388 1 -388 -12 0 -13 52 -15 373 -18 366 -3 373 -3
419 -26 58 -29 105 -81 113 -124 3 -18 4 -441 3 -939 l-3 -905 -25 -38 c-16
-23 -46 -47 -80 -64 l-55 -27 -1074 -3 c-1216 -3 -1149 -7 -1228 73 l-43 42 0
940 0 940 23 34 c13 21 45 45 82 64 l60 30 373 3 c315 3 372 6 372 18 0 12
-56 14 -377 14 -348 -1 -382 -2 -427 -20z"/>
<path d="M6883 2345 c-47 -21 -53 -27 -53 -55 0 -27 6 -34 43 -50 65 -29 171
-43 266 -37 215 15 293 98 142 152 -53 18 -61 19 -61 1 0 -7 20 -19 45 -26
126 -35 54 -86 -137 -97 -137 -8 -287 25 -275 60 2 7 27 21 55 32 29 11 52 26
52 33 0 18 -18 15 -77 -13z"/>
<path d="M4223 2278 c-23 -30 -24 -38 -3 -38 23 0 38 26 23 41 -6 6 -13 5 -20
-3z"/>
<path d="M4456 2281 c-10 -16 5 -41 25 -41 22 0 23 8 5 33 -15 19 -22 21 -30
8z"/>
<path d="M7564 1894 c0 -33 0 -34 13 -12 16 29 16 35 0 41 -9 3 -13 -5 -13
-29z"/>
<path d="M876 1885 c-25 -25 -19 -58 15 -91 43 -40 53 -62 38 -80 -18 -22 -58
-17 -69 9 -8 21 -9 21 -9 -5 -1 -26 2 -28 38 -28 30 0 44 6 55 22 23 33 20 44
-24 92 -22 24 -40 50 -40 59 0 22 37 32 57 15 14 -11 16 -11 11 2 -7 21 -52
24 -72 5z"/>
<path d="M1061 1878 c-4 -13 -20 -58 -36 -100 -16 -46 -34 -79 -44 -81 -9 -3
-2 -5 16 -6 23 -1 31 3 27 12 -3 8 0 26 5 40 14 37 63 38 79 2 7 -14 12 -32
12 -40 0 -10 10 -15 33 -14 17 1 25 3 15 6 -10 2 -30 42 -54 104 -20 54 -39
99 -41 99 -2 0 -7 -10 -12 -22z m23 -60 c9 -35 8 -38 -14 -38 -11 0 -20 3 -20
8 0 19 13 52 20 52 4 0 10 -10 14 -22z"/>
<path d="M1160 1885 c0 -7 15 -9 36 -7 l35 4 -3 -96 -3 -96 30 1 c17 0 24 3
18 6 -9 3 -13 32 -13 94 0 86 1 89 23 89 13 0 28 -5 35 -12 9 -9 12 -8 12 8 0
17 -7 19 -85 19 -53 0 -85 -4 -85 -10z"/>
<path d="M2092 1880 c-5 -14 -22 -60 -37 -102 -16 -46 -34 -79 -44 -81 -9 -3
-2 -5 16 -6 23 -1 31 3 27 12 -3 8 0 26 5 40 8 21 17 27 40 27 27 0 32 -5 42
-40 10 -33 16 -40 38 -40 17 0 22 3 14 8 -7 5 -31 53 -52 108 -36 90 -40 97
-49 74z m28 -87 c0 -7 -9 -13 -20 -13 -21 0 -25 15 -13 46 6 16 7 16 20 -2 7
-10 13 -24 13 -31z"/>
<path d="M1370 1804 c6 -97 17 -114 80 -114 56 0 72 25 79 120 5 67 4 80 -9
80 -12 0 -14 -13 -12 -70 5 -90 -13 -123 -61 -118 -44 4 -58 36 -55 121 2 54
0 67 -12 67 -13 0 -14 -14 -10 -86z"/>
<path d="M1608 1804 c2 -56 -1 -90 -8 -100 -11 -12 -7 -14 21 -13 19 0 28 3
22 6 -16 6 -17 69 -1 79 7 5 27 -11 52 -39 l41 -47 98 0 c96 0 99 1 128 29 23
24 29 38 29 74 0 72 -22 91 -111 95 l-74 4 3 -96 c3 -95 3 -96 -20 -96 -27 0
-33 4 -72 47 -27 30 -27 33 -12 54 19 28 21 60 4 77 -7 7 -32 12 -57 12 l-46
0 3 -86z m82 50 c13 -34 -3 -64 -35 -64 -23 0 -25 4 -25 45 0 41 2 45 25 45
18 0 28 -7 35 -26z m247 2 c23 -20 28 -32 28 -71 0 -58 -27 -85 -86 -85 l-39
0 0 90 0 90 34 0 c22 0 45 -9 63 -24z"/>
<path d="M2226 1836 c31 -47 36 -62 32 -100 -3 -45 -3 -46 27 -45 16 0 24 3
18 6 -24 9 -15 90 13 136 15 23 32 45 38 49 7 5 3 8 -9 8 -14 0 -25 -13 -38
-45 -11 -25 -23 -45 -28 -45 -5 0 -19 20 -31 45 -14 29 -29 45 -40 45 -15 0
-13 -9 18 -54z"/>
<path d="M6515 1855 c-18 -18 -25 -35 -25 -65 0 -63 44 -96 121 -88 32 3 34 6
40 46 5 38 3 42 -16 42 -18 0 -20 -5 -17 -40 4 -38 3 -40 -23 -40 -37 0 -85
50 -85 89 0 40 31 71 70 71 17 0 39 -9 50 -20 l20 -20 0 25 c0 24 -3 25 -55
25 -46 0 -60 -4 -80 -25z"/>
<path d="M6708 1868 c7 -7 12 -40 12 -78 0 -38 -5 -71 -12 -78 -9 -9 -4 -12
23 -11 18 0 28 3 22 6 -16 6 -17 59 -2 69 6 4 28 -12 49 -35 25 -27 46 -41 61
-40 23 0 23 0 3 9 -12 5 -31 22 -43 39 -17 24 -20 35 -11 50 27 52 2 81 -71
81 -34 0 -40 -3 -31 -12z m76 -14 c27 -27 15 -64 -20 -64 -21 0 -24 5 -24 33
0 49 16 60 44 31z"/>
<path d="M6906 1855 c-36 -33 -37 -95 -1 -130 26 -27 80 -34 117 -14 26 14 48
67 41 102 -12 64 -106 90 -157 42z m109 -10 c17 -16 25 -35 25 -60 0 -79 -89
-104 -125 -34 -20 38 -19 62 6 93 26 33 62 34 94 1z"/>
<path d="M7134 1865 c-12 -8 -27 -28 -34 -45 -36 -87 83 -161 154 -95 36 33
37 95 1 130 -28 29 -88 34 -121 10z m95 -12 c33 -27 38 -82 11 -116 -33 -42
-80 -35 -106 15 -40 78 31 153 95 101z"/>
<path d="M7335 1802 c-4 -42 -12 -83 -17 -89 -8 -10 -4 -13 17 -13 21 0 25 3
17 13 -5 7 -7 31 -3 57 l7 45 27 -52 c15 -29 31 -53 35 -53 5 0 19 23 32 50
13 28 27 50 32 50 4 0 8 -18 8 -39 0 -54 8 -71 34 -71 13 0 16 3 9 8 -9 5 -29
109 -33 170 -1 4 -17 -23 -36 -60 -19 -38 -38 -68 -42 -68 -5 0 -21 27 -37 61
-16 33 -32 62 -36 65 -4 2 -10 -31 -14 -74z"/>
<path d="M7618 1855 c-11 -23 -8 -29 32 -70 37 -37 41 -46 30 -60 -17 -20 -47
-19 -59 3 -9 15 -10 15 -11 -5 0 -19 5 -23 33 -23 41 0 72 29 62 59 -3 12 -22
33 -41 47 -19 15 -34 33 -34 41 0 20 29 28 51 14 15 -9 19 -8 19 4 0 11 -10
15 -35 15 -28 0 -38 -5 -47 -25z"/>
<path d="M3978 1818 c17 -17 16 -155 0 -161 -7 -3 3 -6 22 -6 23 0 30 2 22 8
-21 13 -11 75 12 79 10 2 22 -2 27 -10 7 -10 9 -9 9 5 0 12 -8 17 -30 17 -27
0 -30 3 -30 31 0 30 2 31 35 27 24 -3 35 0 35 9 0 9 -17 13 -57 13 -44 0 -54
-3 -45 -12z"/>
<path d="M4118 1821 c10 -6 13 -30 10 -90 l-3 -81 30 1 c17 0 24 3 18 6 -18 7
-17 63 0 63 8 0 28 -16 46 -35 17 -19 40 -35 51 -35 15 0 11 8 -21 38 l-41 37
19 33 c18 33 18 33 -6 53 -16 13 -38 19 -70 19 -29 0 -41 -3 -33 -9z m73 -11
c24 -13 26 -65 3 -74 -25 -10 -34 2 -34 45 0 42 2 44 31 29z"/>
<path d="M4334 1815 c-12 -8 -27 -28 -34 -44 -26 -63 15 -121 84 -121 61 1 96
37 96 98 0 62 -93 104 -146 67z m96 -15 c14 -14 20 -33 20 -62 0 -74 -56 -103
-105 -53 -48 47 -22 135 40 135 14 0 34 -9 45 -20z"/>
<path d="M4536 1785 c-4 -28 -10 -69 -15 -92 -7 -37 -6 -43 8 -43 13 0 16 8
13 40 -7 75 7 81 39 18 16 -32 31 -58 33 -58 3 0 16 25 31 55 14 31 30 53 35
50 6 -4 10 -28 10 -56 0 -47 1 -49 28 -49 23 1 24 2 10 11 -13 7 -18 23 -19
52 0 23 -4 60 -8 82 l-8 40 -32 -67 c-17 -38 -35 -68 -40 -68 -5 0 -19 19 -30
43 -49 98 -48 97 -55 42z"/>
<path d="M6388 1533 c16 -6 17 -144 0 -161 -9 -9 -4 -12 22 -12 26 0 31 3 22
12 -16 16 -16 68 0 68 7 0 29 -18 49 -40 23 -26 45 -40 60 -40 l24 1 -22 12
c-12 7 -31 25 -44 41 -18 23 -20 32 -11 47 31 49 7 79 -62 78 -28 0 -45 -3
-38 -6z m82 -23 c16 -30 3 -60 -26 -60 -21 0 -24 4 -24 40 0 33 3 40 20 40 10
0 24 -9 30 -20z"/>
<path d="M6569 1531 c10 -6 12 -29 10 -90 l-4 -82 44 3 c24 2 46 8 48 14 2 6
-10 8 -32 6 -34 -4 -35 -4 -35 33 0 36 1 37 30 33 18 -3 30 0 30 7 0 6 -12 11
-27 10 -24 0 -28 4 -28 30 0 33 30 48 46 23 7 -10 9 -9 9 5 0 14 -9 17 -52 17
-34 0 -48 -3 -39 -9z"/>
<path d="M6722 1528 c-21 -21 -13 -46 23 -79 19 -18 35 -40 35 -50 0 -25 -29
-32 -57 -13 -23 15 -25 14 -21 -3 2 -11 13 -19 30 -21 73 -9 94 57 33 104 -19
14 -35 33 -35 41 0 20 29 28 51 14 15 -9 19 -8 19 4 0 19 -60 21 -78 3z"/>
<path d="M6855 1450 l0 -90 30 0 c20 0 26 3 17 9 -10 6 -13 30 -10 90 3 75 2
81 -17 81 -19 0 -20 -7 -20 -90z"/>
<path d="M6955 1450 l0 -90 48 0 c64 0 103 21 116 63 24 71 -20 117 -109 117
l-55 0 0 -90z m120 55 c43 -42 23 -121 -30 -126 -55 -4 -55 -4 -55 76 l0 75
30 0 c19 0 40 -9 55 -25z"/>
<path d="M7169 1531 c10 -6 12 -29 10 -90 l-4 -82 44 3 c24 2 46 8 48 14 2 6
-10 8 -32 6 -34 -4 -35 -4 -35 33 0 36 1 37 30 33 18 -3 30 0 30 7 0 6 -12 11
-27 10 -24 0 -28 4 -28 30 0 33 30 48 46 23 7 -10 9 -9 9 5 0 14 -9 17 -52 17
-34 0 -48 -3 -39 -9z"/>
<path d="M7318 1450 c-3 -90 -3 -90 22 -90 19 0 21 3 12 12 -7 7 -12 37 -12
67 l0 55 69 -68 70 -69 3 92 3 91 -25 0 c-15 0 -20 -3 -13 -8 11 -7 21 -107
12 -117 -3 -3 -31 24 -63 60 -31 36 -61 65 -66 65 -5 0 -10 -41 -12 -90z"/>
<path d="M7546 1509 c-28 -33 -32 -53 -16 -93 19 -52 128 -77 150 -35 7 11 9
23 6 26 -3 3 -8 -2 -12 -11 -10 -26 -76 -21 -102 7 -28 29 -29 87 -4 110 24
22 90 23 98 2 9 -22 23 -18 17 5 -5 17 -14 20 -58 20 -47 0 -56 -4 -79 -31z"/>
<path d="M7729 1531 c10 -6 12 -29 10 -90 l-4 -82 44 3 c51 3 67 23 19 23 -30
0 -33 3 -33 30 0 26 4 30 28 30 15 -1 27 4 27 10 0 6 -12 11 -27 10 -24 0 -28
4 -28 30 0 33 30 48 46 23 7 -10 9 -9 9 5 0 14 -9 17 -52 17 -34 0 -48 -3 -39
-9z"/>
<path d="M1280 1501 c0 -28 3 -30 43 -33 l42 -3 3 -217 2 -218 45 0 45 0 0
250 0 250 -90 0 -90 0 0 -29z"/>
<path d="M1692 1412 c-12 -65 -22 -123 -22 -129 0 -19 68 -26 92 -8 33 23 82
19 115 -9 58 -50 20 -159 -56 -159 -33 0 -81 36 -81 60 0 9 -15 13 -49 13
l-50 0 9 -29 c13 -46 28 -69 67 -98 31 -24 46 -28 103 -28 74 0 103 14 145 69
30 39 41 96 31 151 -15 80 -120 149 -193 127 -21 -6 -38 -10 -40 -8 -2 2 0 21
5 42 l8 39 87 3 87 3 0 39 0 40 -118 0 -118 0 -22 -118z"/>
<path d="M3827 1513 c-4 -3 -7 -21 -7 -38 0 -26 6 -35 29 -44 34 -15 51 -48
40 -78 -10 -26 -45 -39 -64 -23 -12 10 -15 9 -15 -4 0 -21 48 -22 77 -1 48 34
33 106 -28 127 -20 7 -29 16 -27 27 4 20 54 27 74 10 11 -9 14 -8 14 10 0 18
-6 21 -43 21 -24 0 -47 -3 -50 -7z"/>
<path d="M4041 1494 c-34 -43 -26 -150 13 -176 49 -33 99 26 93 109 -6 87 -62
122 -106 67z m63 -6 c33 -52 23 -159 -16 -166 -40 -8 -65 119 -32 166 19 28
30 28 48 0z"/>
<path d="M4193 1493 c-25 -38 -24 -134 1 -162 26 -29 60 -26 86 7 19 23 21 37
18 91 -3 47 -9 67 -23 77 -30 22 -63 17 -82 -13z m75 -13 c18 -34 10 -126 -12
-148 -16 -16 -18 -16 -37 7 -22 26 -27 118 -8 152 13 26 40 21 57 -11z"/>
<path d="M4435 1400 l0 -90 30 1 c17 0 24 3 18 6 -7 2 -13 19 -13 38 0 28 4
33 30 39 20 3 34 15 42 32 11 23 10 29 -11 45 -13 11 -39 19 -60 19 l-36 0 0
-90z m79 58 c18 -26 5 -58 -24 -58 -17 0 -20 7 -20 40 0 46 19 54 44 18z"/>
<path d="M4638 1484 c-3 -5 -9 -40 -13 -79 -4 -38 -12 -76 -17 -82 -8 -10 -4
-13 17 -13 20 0 25 3 18 13 -5 6 -6 32 -3 57 l5 45 30 -52 c17 -29 33 -53 37
-53 4 0 17 23 30 50 27 58 38 63 38 18 0 -58 10 -78 38 -78 23 0 24 1 9 13
-11 8 -20 36 -26 85 -5 41 -11 76 -14 78 -2 2 -17 -25 -33 -61 -16 -35 -32
-65 -36 -65 -4 0 -23 30 -41 67 -19 36 -36 62 -39 57z"/>
<path d="M3960 1424 c0 -9 5 -14 12 -12 18 6 21 28 4 28 -9 0 -16 -7 -16 -16z"/>
<path d="M3960 1334 c0 -9 5 -14 12 -12 18 6 21 28 4 28 -9 0 -16 -7 -16 -16z"/>
<path d="M4542 1329 c2 -6 8 -10 13 -10 5 0 11 4 13 10 2 6 -4 11 -13 11 -9 0
-15 -5 -13 -11z"/>
<path d="M4862 1329 c2 -6 8 -10 13 -10 5 0 11 4 13 10 2 6 -4 11 -13 11 -9 0
-15 -5 -13 -11z"/>
<path d="M6108 1225 c-8 -18 -8 -29 -1 -36 7 -7 12 0 15 25 5 43 2 45 -14 11z"/>
<path d="M8013 1212 l-2 -37 15 28 c8 15 12 32 9 37 -12 20 -20 9 -22 -28z"/>
<path d="M7321 1126 c-20 -53 -39 -86 -48 -86 -8 0 -11 5 -7 13 6 10 4 10 -7
0 -7 -7 -26 -13 -42 -13 l-29 0 4 80 c2 66 0 80 -12 80 -12 0 -15 -16 -15 -85
l0 -85 72 0 c71 0 71 0 78 30 6 25 11 30 36 30 24 0 32 -6 40 -30 7 -18 18
-30 28 -30 15 0 14 7 -9 58 -14 31 -33 72 -41 90 l-15 34 -33 -86z m43 8 c10
-26 7 -34 -15 -34 -15 0 -19 4 -15 16 3 9 6 20 6 25 0 15 17 10 24 -7z"/>
<path d="M7626 1136 c-16 -42 -35 -83 -43 -91 -13 -13 -12 -15 5 -15 14 0 21
9 26 30 5 26 10 30 37 30 25 0 33 -6 42 -30 6 -16 19 -30 28 -30 14 0 13 6 -6
48 -12 26 -31 67 -42 91 l-19 44 -28 -77z m42 -14 c3 -17 -2 -22 -18 -22 -16
0 -20 4 -16 16 3 9 6 20 6 26 0 19 25 1 28 -20z"/>
<path d="M6175 1115 c0 -69 3 -85 15 -85 12 0 15 16 15 85 0 69 -3 85 -15 85
-12 0 -15 -16 -15 -85z"/>
<path d="M6278 1116 c-2 -53 1 -86 7 -86 6 0 9 24 7 60 -2 35 0 60 6 60 6 0
29 -23 52 -50 23 -28 50 -55 60 -60 17 -9 19 -3 22 75 3 79 2 85 -16 85 -16 0
-17 -3 -8 -12 13 -13 17 -108 5 -108 -4 0 -35 28 -69 61 l-62 62 -4 -87z"/>
<path d="M6495 1115 l0 -85 62 0 c55 0 64 3 82 26 29 37 27 89 -4 119 -20 21
-34 25 -82 25 l-58 0 0 -85z m115 55 c59 -59 20 -140 -61 -128 -22 3 -24 8
-27 76 l-3 72 36 0 c22 0 43 -8 55 -20z"/>
<path d="M6708 1115 c3 -72 6 -85 20 -85 15 0 17 12 17 85 0 78 -2 85 -20 85
-19 0 -20 -6 -17 -85z"/>
<path d="M6810 1185 c9 -11 11 -35 7 -85 -5 -62 -4 -70 12 -70 14 0 16 7 13
35 -3 27 -1 35 11 35 9 0 28 -16 43 -35 22 -30 32 -35 66 -35 21 0 37 3 35 8
-3 4 -1 17 4 30 6 16 16 22 39 22 26 0 31 -5 37 -30 4 -24 11 -30 30 -30 21 0
22 2 11 14 -8 7 -27 45 -42 85 -16 39 -32 71 -35 71 -4 0 -19 -34 -35 -76 -16
-42 -36 -78 -43 -81 -8 -3 -26 8 -42 28 -27 32 -27 34 -12 61 24 42 7 62 -59
66 -48 3 -52 1 -40 -13z m75 -35 c0 -29 -4 -36 -22 -38 -21 -3 -23 1 -23 38 0
37 2 41 23 38 18 -2 22 -9 22 -38z m165 -9 c0 -5 3 -16 6 -25 4 -12 0 -16 -15
-16 -20 0 -30 28 -14 43 9 10 23 9 23 -2z"/>
<path d="M7466 1148 c26 -40 34 -61 32 -85 -3 -25 0 -33 12 -33 12 0 15 8 12
34 -4 36 16 84 49 117 17 17 17 19 2 19 -11 0 -25 -16 -37 -41 -20 -44 -34
-42 -56 11 -7 18 -20 30 -31 30 -15 0 -13 -8 17 -52z"/>
<path d="M7784 1115 c-8 -69 -7 -85 4 -85 7 0 11 3 9 8 -2 4 -1 30 2 57 l7 50
29 -57 c16 -32 32 -58 35 -58 4 0 17 23 30 50 13 28 27 50 32 50 7 0 13 -66 9
-92 0 -5 7 -8 18 -8 16 0 17 5 10 43 -4 23 -12 62 -17 87 l-8 45 -32 -68 c-17
-38 -35 -66 -40 -64 -4 3 -21 33 -37 66 -16 34 -32 61 -35 61 -4 0 -11 -38
-16 -85z"/>
<path d="M4167 1143 c-15 -14 -6 -23 12 -12 10 7 26 9 36 5 15 -5 17 -17 14
-84 -4 -74 -3 -77 18 -77 14 0 19 4 13 9 -6 6 -10 41 -10 78 0 74 14 93 51 69
15 -9 19 -8 19 4 0 12 -15 15 -73 15 -41 0 -77 -3 -80 -7z"/>
<path d="M4369 1137 c-64 -49 -42 -148 35 -163 43 -8 93 18 107 54 14 37 3 88
-24 107 -26 18 -95 19 -118 2z m101 -17 c23 -23 27 -87 8 -113 -7 -9 -25 -19
-40 -22 -59 -15 -105 88 -61 137 21 24 68 23 93 -2z"/>
<path d="M8074 1030 c1 -27 2 -28 14 -13 16 22 15 43 -2 43 -8 0 -13 -11 -12
-30z"/>
<path d="M864 867 c17 -12 18 -26 14 -135 -4 -111 -6 -124 -28 -147 -13 -14
-19 -25 -14 -25 6 0 23 14 40 31 28 30 29 33 33 152 2 77 7 125 15 129 6 4 -9
8 -33 8 -40 0 -43 -2 -27 -13z"/>
<path d="M973 869 c14 -8 17 -25 17 -94 0 -74 3 -87 24 -112 33 -38 95 -39
132 -2 22 23 26 37 32 122 l7 97 -30 -1 c-16 0 -24 -3 -17 -6 8 -3 12 -32 12
-94 0 -99 -15 -129 -65 -129 -50 0 -65 30 -65 129 0 62 4 91 13 94 6 3 -8 6
-33 6 -35 0 -41 -2 -27 -10z"/>
<path d="M1248 871 c10 -6 13 -36 10 -120 l-3 -112 65 3 c56 3 65 6 69 23 3
19 3 19 -16 3 -26 -24 -60 -23 -73 1 -5 11 -10 58 -10 105 0 70 3 87 18 95 13
8 7 10 -28 11 -28 0 -40 -3 -32 -9z"/>
<path d="M1382 870 c9 -6 33 -37 52 -69 27 -44 36 -70 36 -104 0 -27 -5 -47
-12 -50 -7 -3 5 -5 27 -5 22 0 34 2 28 5 -8 3 -13 23 -13 51 0 52 43 139 82
166 22 16 22 16 -10 16 -22 0 -32 -5 -32 -16 0 -16 -41 -94 -50 -94 -10 0 -60
92 -55 101 4 5 -11 9 -32 9 -30 -1 -34 -3 -21 -10z"/>
<path d="M1717 873 c-4 -3 -7 -18 -7 -32 l0 -26 13 25 c18 35 52 38 73 5 24
-37 6 -89 -51 -145 -25 -24 -45 -48 -45 -52 0 -4 31 -8 69 -8 70 0 81 6 81 46
0 10 -5 9 -20 -6 -13 -13 -33 -20 -56 -20 l-36 0 46 51 c53 59 67 106 42 144
-13 20 -25 25 -60 25 -23 0 -46 -3 -49 -7z"/>
<path d="M1906 861 c-35 -38 -42 -140 -14 -193 27 -54 97 -41 122 23 36 90 3
189 -63 189 -15 0 -36 -9 -45 -19z m76 -32 c32 -61 14 -179 -27 -179 -52 0
-74 160 -28 205 21 22 35 15 55 -26z"/>
<path d="M2067 873 c-4 -3 -7 -18 -7 -32 1 -25 1 -25 12 -6 21 38 47 45 72 19
37 -36 3 -125 -68 -181 -14 -12 -26 -24 -26 -27 0 -4 33 -6 73 -4 72 3 72 3
75 33 l3 30 -16 -22 c-11 -16 -26 -23 -51 -23 -42 0 -43 8 -3 46 59 56 77 125
41 157 -18 17 -92 24 -105 10z"/>
<path d="M2251 853 c1 -17 3 -21 6 -11 7 27 42 33 65 10 16 -16 18 -23 9 -41
-6 -11 -21 -26 -33 -32 -21 -11 -20 -12 11 -25 29 -12 32 -17 29 -51 -2 -31
-8 -39 -32 -48 -24 -8 -31 -6 -46 13 -16 19 -19 20 -25 5 -6 -18 17 -43 40
-43 27 0 76 23 85 40 17 32 12 78 -10 93 -18 13 -19 16 -5 27 18 15 20 61 3
78 -7 7 -31 12 -55 12 -41 0 -43 -2 -42 -27z"/>
<path d="M6371 856 c13 -14 11 -140 -3 -154 -9 -9 1 -12 45 -12 44 0 57 3 57
15 0 12 -4 13 -19 4 -28 -18 -51 -4 -51 31 0 34 22 49 45 30 12 -10 15 -9 15
4 0 11 -9 16 -30 16 -27 0 -30 3 -30 31 0 29 2 31 30 27 17 -3 30 0 30 6 0 6
-21 11 -49 11 -32 0 -46 -3 -40 -9z"/>
<path d="M6519 857 c16 -16 14 -154 -1 -160 -7 -3 26 -6 73 -6 63 -1 87 2 86
12 -1 40 4 47 34 47 25 0 33 -6 42 -30 8 -22 18 -30 36 -30 22 0 23 2 9 13 -9
6 -31 47 -48 90 -18 42 -33 77 -35 77 -1 0 -17 -38 -35 -85 -20 -51 -38 -85
-47 -85 -9 0 -11 5 -7 13 6 9 3 8 -9 -1 -9 -8 -26 -12 -39 -10 -22 3 -23 7
-23 80 0 72 -1 77 -23 81 -17 3 -20 1 -13 -6z m210 -84 c1 -14 -25 -18 -32 -5
-3 4 0 18 5 32 10 24 11 24 18 5 5 -11 9 -26 9 -32z"/>
<path d="M6930 863 c-8 -2 -22 -18 -31 -35 -21 -44 -36 -45 -56 -4 -10 21 -24
36 -34 36 -15 0 -12 -9 17 -51 34 -52 44 -103 22 -112 -7 -3 3 -5 22 -5 19 0
29 2 23 5 -25 9 -14 69 21 122 19 28 34 50 33 50 -1 -1 -9 -3 -17 -6z"/>
<path d="M6981 785 c-18 -46 -38 -86 -45 -89 -6 -2 1 -5 15 -5 15 -1 27 4 26
12 -1 40 4 47 34 47 25 0 33 -6 42 -30 8 -22 18 -30 36 -30 22 0 23 2 9 13 -9
6 -31 47 -48 90 -18 42 -33 77 -34 77 -1 0 -17 -38 -35 -85z m49 -7 c0 -10 -6
-18 -14 -18 -21 0 -25 11 -14 40 7 20 11 22 18 10 5 -8 10 -23 10 -32z"/>
<path d="M7105 826 c13 -23 30 -62 40 -88 20 -53 30 -59 41 -25 4 12 21 52 38
88 27 56 29 65 14 61 -10 -2 -18 -12 -18 -21 0 -9 -11 -38 -23 -66 l-24 -50
-21 58 c-12 32 -22 62 -22 66 0 5 -11 11 -23 13 l-24 5 22 -41z"/>
<path d="M7319 855 c-52 -29 -61 -103 -19 -145 23 -23 95 -27 121 -7 22 17 39
51 39 81 0 60 -85 103 -141 71z m85 -16 c20 -16 26 -29 26 -61 0 -50 -22 -78
-62 -78 -40 0 -68 32 -68 78 0 39 14 66 40 75 27 10 37 7 64 -14z"/>
<path d="M7544 860 c-56 -22 -72 -103 -29 -145 18 -19 35 -25 69 -25 37 0 48
5 70 31 42 49 32 105 -24 134 -32 17 -54 18 -86 5z m81 -25 c47 -46 24 -135
-36 -135 -43 0 -69 31 -69 84 0 72 57 100 105 51z"/>
<path d="M7721 848 c12 -23 11 -115 -1 -139 -10 -17 -7 -19 22 -18 18 0 27 3
21 6 -7 2 -13 18 -13 34 0 40 23 38 61 -6 17 -19 40 -35 50 -35 15 0 11 7 -17
33 -36 33 -36 34 -24 69 18 49 4 65 -59 70 -43 3 -48 1 -40 -14z m79 -18 c14
-26 -3 -60 -30 -60 -17 0 -20 7 -20 40 0 33 3 40 20 40 10 0 24 -9 30 -20z"/>
<path d="M3840 843 c-41 -14 -55 -84 -21 -103 25 -13 61 -13 61 0 0 5 -6 7
-14 4 -7 -3 -21 2 -30 11 -31 31 -14 79 25 73 53 -7 50 -104 -5 -163 -38 -40
-37 -44 5 -14 38 27 59 68 59 117 0 56 -36 90 -80 75z"/>
<path d="M4062 839 c-28 -11 -42 -47 -42 -110 0 -40 5 -55 25 -74 30 -31 46
-31 75 0 30 32 39 109 17 152 -18 34 -42 44 -75 32z m56 -54 c15 -46 8 -108
-15 -131 -14 -14 -18 -14 -36 4 -24 24 -34 104 -18 145 17 43 52 34 69 -18z"/>
<path d="M4206 829 c-49 -38 -43 -167 9 -191 49 -22 85 24 85 110 0 80 -46
119 -94 81z m61 -29 c15 -30 17 -89 3 -124 -11 -31 -45 -35 -60 -7 -14 27 -13
134 2 149 18 18 41 11 55 -18z"/>
<path d="M4435 725 c0 -74 2 -85 18 -85 15 0 17 10 17 80 0 73 2 80 20 80 22
0 43 -31 34 -53 -3 -8 -15 -19 -27 -25 -12 -6 -16 -11 -9 -11 15 -1 62 43 62
58 0 22 -33 41 -73 41 l-42 0 0 -85z"/>
<path d="M4636 800 c-2 -8 -9 -48 -14 -87 -6 -55 -5 -73 4 -73 6 0 12 6 11 13
-1 43 4 87 11 87 5 0 19 -22 32 -50 13 -27 26 -50 30 -50 4 0 17 23 30 50 27
58 40 63 40 16 0 -43 9 -66 24 -66 9 0 10 16 3 63 -17 122 -15 120 -53 45 -19
-38 -36 -68 -39 -68 -3 0 -20 30 -39 68 -22 42 -36 61 -40 52z"/>
<path d="M3960 756 c0 -9 7 -16 16 -16 17 0 14 22 -4 28 -7 2 -12 -3 -12 -12z"/>
<path d="M3960 666 c0 -9 7 -16 16 -16 17 0 14 22 -4 28 -7 2 -12 -3 -12 -12z"/>
<path d="M4540 655 c0 -8 7 -15 15 -15 8 0 15 7 15 15 0 8 -7 15 -15 15 -8 0
-15 -7 -15 -15z"/>
<path d="M4860 655 c0 -9 5 -15 11 -13 6 2 11 8 11 13 0 5 -5 11 -11 13 -6 2
-11 -4 -11 -13z"/>
</g>
</svg>
