<?xml version="1.0" standalone="no"?>
<!DOCTYPE svg PUBLIC "-//W3C//DTD SVG 20010904//EN"
 "http://www.w3.org/TR/2001/REC-SVG-20010904/DTD/svg10.dtd">
<svg version="1.0" xmlns="http://www.w3.org/2000/svg"
 width="561.000000pt" height="192.000000pt" viewBox="0 0 561.000000 192.000000"
 preserveAspectRatio="xMidYMid meet">

<g transform="translate(0.000000,192.000000) scale(0.100000,-0.100000)"
fill="#ffff00" stroke="none">
<path d="M1013 1761 c-3 -12 -15 -21 -32 -23 l-26 -3 0 -110 0 -110 133 -3
132 -3 0 116 0 115 -30 0 c-23 0 -30 4 -30 20 0 11 -5 20 -11 20 -6 0 -13 -9
-16 -20 -4 -16 -14 -20 -49 -20 -37 0 -44 3 -44 20 0 26 -20 26 -27 1z m7
-101 c0 -13 -7 -20 -20 -20 -13 0 -20 7 -20 20 0 13 7 20 20 20 13 0 20 -7 20
-20z m60 0 c0 -15 -7 -20 -25 -20 -18 0 -25 5 -25 20 0 15 7 20 25 20 18 0 25
-5 25 -20z m60 0 c0 -13 -7 -20 -20 -20 -13 0 -20 7 -20 20 0 13 7 20 20 20
13 0 20 -7 20 -20z m60 0 c0 -13 -7 -20 -20 -20 -13 0 -20 7 -20 20 0 13 7 20
20 20 13 0 20 -7 20 -20z m-180 -55 c0 -8 -9 -15 -20 -15 -11 0 -20 7 -20 15
0 8 9 15 20 15 11 0 20 -7 20 -15z m60 0 c0 -9 -9 -15 -25 -15 -16 0 -25 6
-25 15 0 9 9 15 25 15 16 0 25 -6 25 -15z m60 0 c0 -8 -9 -15 -20 -15 -11 0
-20 7 -20 15 0 8 9 15 20 15 11 0 20 -7 20 -15z m60 0 c0 -8 -9 -15 -20 -15
-11 0 -20 7 -20 15 0 8 9 15 20 15 11 0 20 -7 20 -15z m-180 -45 c0 -13 -7
-20 -20 -20 -13 0 -20 7 -20 20 0 13 7 20 20 20 13 0 20 -7 20 -20z m60 0 c0
-15 -7 -20 -25 -20 -24 0 -34 18 -18 33 15 15 43 7 43 -13z m60 0 c0 -13 -7
-20 -20 -20 -13 0 -20 7 -20 20 0 13 7 20 20 20 13 0 20 -7 20 -20z m60 0 c0
-13 -7 -20 -20 -20 -13 0 -20 7 -20 20 0 13 7 20 20 20 13 0 20 -7 20 -20z"/>
<path d="M4530 1767 c-40 -20 -54 -60 -41 -114 12 -44 67 -163 76 -163 12 0
76 145 81 183 5 36 2 48 -17 70 -29 32 -66 41 -99 24z m64 -63 c7 -19 -10 -44
-30 -44 -20 0 -36 34 -22 48 17 17 45 15 52 -4z"/>
<path d="M2707 1732 c-18 -20 -22 -48 -8 -56 5 -3 16 5 25 18 8 14 25 27 36
31 11 4 18 11 15 16 -10 15 -51 10 -68 -9z"/>
<path d="M2890 1744 c0 -6 70 -74 76 -74 11 0 2 51 -12 64 -14 15 -64 23 -64
10z"/>
<path d="M2784 1720 c-11 -4 -33 -22 -47 -40 -73 -87 16 -220 126 -189 104 28
119 177 23 223 -37 17 -69 19 -102 6z m104 -23 c30 -14 52 -56 52 -98 0 -47
-56 -99 -107 -99 -125 0 -151 162 -33 209 26 10 50 7 88 -12z"/>
<path d="M2806 1620 c17 -18 24 -19 54 -9 19 7 39 16 45 21 5 5 -9 2 -32 -6
-36 -13 -43 -13 -54 0 -6 8 -16 14 -22 14 -6 0 -2 -9 9 -20z"/>
<path d="M372 1555 c-24 -7 -53 -22 -64 -32 -48 -42 -48 -46 -48 -660 0 -656
-4 -626 80 -670 l43 -23 699 0 c765 0 739 -2 791 59 l27 33 0 604 c0 678 5
635 -74 677 -38 21 -56 22 -283 25 -216 3 -243 2 -243 -12 0 -14 28 -16 240
-16 261 0 277 -3 319 -56 21 -26 21 -34 21 -618 0 -663 5 -621 -74 -657 -39
-18 -78 -19 -716 -19 -430 0 -688 4 -712 10 -20 6 -48 24 -62 41 l-26 31 0
594 c0 391 4 602 10 615 6 10 28 28 50 39 36 18 59 20 275 20 202 0 235 2 235
15 0 13 -31 15 -222 14 -158 0 -236 -4 -266 -14z"/>
<path d="M2120 1558 c-55 -15 -98 -54 -110 -98 -7 -26 -10 -231 -8 -614 3
-562 3 -575 24 -602 11 -15 33 -37 48 -48 27 -21 36 -21 751 -21 715 0 724 0
751 21 15 11 37 33 48 48 21 27 21 37 21 626 0 588 0 599 -21 626 -11 15 -38
37 -60 48 -36 19 -59 21 -276 24 -212 3 -238 2 -238 -12 0 -14 28 -16 238 -16
224 0 239 -1 272 -21 19 -12 40 -29 47 -38 9 -12 12 -155 13 -611 0 -667 5
-625 -74 -661 -39 -18 -78 -19 -721 -19 -643 0 -682 1 -721 19 -79 36 -74 -6
-74 661 1 456 4 599 13 611 7 9 28 26 47 38 33 20 48 21 278 21 208 0 242 2
242 15 0 13 -32 15 -227 14 -126 0 -244 -5 -263 -11z"/>
<path d="M3875 1561 c-47 -12 -91 -38 -109 -65 -14 -23 -16 -85 -16 -630 l0
-604 27 -33 c52 -61 26 -59 791 -59 l699 0 43 23 c84 44 81 12 78 684 -3 580
-3 592 -24 620 -11 15 -38 37 -60 48 -35 18 -63 20 -276 23 -211 3 -238 2
-238 -12 0 -14 28 -16 235 -16 216 0 239 -2 275 -20 22 -11 44 -29 50 -39 6
-13 10 -224 10 -615 l0 -594 -26 -31 c-14 -17 -42 -35 -62 -41 -24 -6 -282
-10 -712 -10 -638 0 -677 1 -716 19 -79 36 -74 -6 -74 657 0 584 0 592 21 618
42 53 58 56 319 56 207 0 240 2 240 15 0 13 -31 15 -222 14 -123 -1 -236 -4
-253 -8z"/>
<path d="M4430 1527 c-34 -17 -36 -42 -5 -63 33 -21 183 -31 242 -15 48 13 75
35 67 55 -7 17 -58 40 -76 33 -7 -2 5 -12 26 -21 35 -14 38 -18 25 -31 -31
-31 -202 -38 -271 -10 -27 11 -21 32 12 44 17 5 30 12 30 15 0 10 -24 6 -50
-7z"/>
<path d="M2746 1481 c-4 -7 -5 -15 -2 -18 9 -9 19 4 14 18 -4 11 -6 11 -12 0z"/>
<path d="M2892 1479 c2 -7 10 -15 17 -17 8 -3 12 1 9 9 -2 7 -10 15 -17 17 -8
3 -12 -1 -9 -9z"/>
<path d="M765 1178 c0 -55 3 -68 15 -68 12 0 15 8 12 36 -4 33 -3 36 17 29 12
-4 21 -2 21 4 0 6 -9 11 -20 11 -14 0 -20 7 -20 21 0 16 5 20 20 16 11 -3 20
0 20 6 0 7 -15 12 -32 12 l-33 0 0 -67z"/>
<path d="M865 1178 c0 -56 3 -68 16 -68 12 0 15 7 11 25 -2 14 0 25 5 25 5 0
20 -11 33 -25 17 -18 34 -25 59 -25 l36 0 -3 68 c-2 45 -8 69 -16 69 -8 0 -11
-19 -8 -64 4 -58 3 -63 -16 -63 -30 0 -51 36 -45 75 6 36 -14 55 -53 53 -17
-2 -19 -10 -19 -70z m55 27 c0 -16 -6 -25 -15 -25 -9 0 -15 9 -15 25 0 16 6
25 15 25 9 0 15 -9 15 -25z"/>
<path d="M1065 1179 l0 -69 43 0 c29 0 48 6 62 20 36 36 18 107 -28 111 -9 1
-30 3 -47 4 l-30 3 0 -69z m89 35 c25 -25 20 -72 -8 -86 -41 -18 -56 -5 -56
52 0 46 2 50 24 50 14 0 32 -7 40 -16z"/>
<path d="M1235 1194 c-11 -31 -25 -63 -33 -70 -11 -12 -10 -14 7 -14 13 0 21
8 23 23 5 33 44 35 52 3 4 -18 13 -26 28 -26 19 0 20 2 7 13 -9 6 -24 35 -34
62 -10 28 -21 53 -24 57 -4 5 -16 -17 -26 -48z m22 -16 c-3 -8 -6 -5 -6 6 -1
11 2 17 5 13 3 -3 4 -12 1 -19z"/>
<path d="M1310 1245 c0 -3 12 -23 26 -45 17 -26 25 -48 22 -65 -4 -19 -1 -25
11 -25 13 0 16 7 13 33 -2 22 4 43 22 70 17 25 21 37 12 37 -8 0 -19 -13 -26
-30 -15 -37 -24 -38 -41 -2 -12 23 -39 42 -39 27z"/>
<path d="M2260 1211 c0 -16 -4 -41 -9 -54 -8 -19 -6 -27 5 -31 10 -4 14 4 15
32 l0 37 16 -32 c20 -40 30 -41 45 -8 14 32 28 32 28 1 0 -13 7 -27 16 -30 12
-5 15 -2 9 11 -4 10 -10 37 -12 61 -3 23 -9 42 -13 42 -4 0 -15 -19 -24 -42
l-18 -43 -21 43 c-25 49 -37 54 -37 13z"/>
<path d="M2410 1189 c8 -65 35 -85 74 -56 23 17 36 107 15 107 -10 0 -14 -14
-14 -47 0 -45 -2 -48 -25 -48 -23 0 -25 3 -25 48 0 36 -4 47 -16 47 -13 0 -14
-9 -9 -51z"/>
<path d="M2538 1186 c3 -35 9 -56 18 -60 10 -4 12 2 7 24 -5 28 -4 30 27 30
29 0 32 -3 28 -24 -3 -17 0 -26 11 -29 13 -3 16 6 16 55 0 47 -3 58 -17 58
-11 0 -15 -6 -11 -20 5 -17 0 -20 -27 -20 -27 0 -32 3 -27 20 4 14 0 20 -11
20 -14 0 -16 -9 -14 -54z"/>
<path d="M2680 1189 c8 -65 35 -85 74 -56 23 17 36 107 15 107 -10 0 -14 -14
-14 -47 0 -45 -2 -48 -25 -48 -23 0 -25 3 -25 48 0 36 -4 47 -16 47 -13 0 -14
-9 -9 -51z"/>
<path d="M2808 1186 c3 -35 9 -56 18 -60 11 -4 13 0 8 19 -8 32 0 31 38 0 35
-30 48 -27 21 4 -10 12 -18 36 -18 54 0 29 -3 32 -35 35 l-35 3 3 -55z m50 22
c-2 -13 -7 -23 -13 -23 -5 0 -11 10 -13 23 -2 15 2 22 13 22 11 0 15 -7 13
-22z"/>
<path d="M2900 1231 c0 -5 9 -7 21 -4 20 6 21 3 18 -45 -3 -40 -1 -52 12 -55
13 -4 15 4 11 51 -4 52 -4 55 17 49 11 -3 21 -1 21 4 0 5 -22 9 -50 9 -27 0
-50 -4 -50 -9z"/>
<path d="M3018 1182 c3 -41 8 -59 17 -59 10 0 12 9 8 29 -5 26 -3 28 26 28 26
0 31 -4 31 -24 0 -13 6 -26 13 -29 9 -3 12 11 12 54 0 48 -3 59 -17 59 -11 0
-15 -6 -11 -20 5 -17 0 -20 -27 -20 -27 0 -32 3 -27 20 4 14 0 20 -11 20 -14
0 -16 -9 -14 -58z"/>
<path d="M3175 1193 c-10 -27 -23 -51 -29 -55 -7 -5 -5 -8 6 -8 9 0 20 9 23
20 8 25 35 26 42 1 5 -19 43 -37 43 -20 0 5 -4 9 -9 9 -5 0 -17 23 -27 50 -10
28 -21 50 -25 50 -3 0 -14 -21 -24 -47z m30 -3 c3 -5 1 -10 -4 -10 -6 0 -11 5
-11 10 0 6 2 10 4 10 3 0 8 -4 11 -10z"/>
<path d="M3280 1208 c0 -18 -3 -43 -6 -55 -4 -14 -2 -23 5 -23 6 0 11 15 12
33 0 28 2 30 12 14 34 -53 33 -53 53 -16 l19 34 3 -32 c2 -17 10 -34 18 -37
11 -4 14 -1 9 13 -3 10 -9 39 -13 62 l-8 44 -24 -45 -23 -45 -20 43 c-25 50
-37 54 -37 10z"/>
<path d="M4140 1235 c0 -3 10 -19 21 -35 14 -18 20 -38 17 -54 -4 -20 -1 -26
12 -26 13 0 17 6 13 20 -3 11 4 36 16 56 25 42 21 59 -5 19 l-17 -26 -24 25
c-23 25 -33 31 -33 21z"/>
<path d="M4270 1203 c-7 -21 -19 -48 -26 -60 -12 -20 -12 -23 0 -23 7 0 16 9
19 20 7 26 37 26 44 0 5 -18 12 -21 57 -18 44 3 51 6 54 25 2 14 -5 27 -22 39
-33 21 -34 38 -1 30 14 -4 25 -2 25 3 0 27 -53 23 -64 -5 -3 -9 4 -25 19 -38
14 -13 25 -28 25 -35 0 -15 -37 -14 -43 2 -4 10 -6 10 -6 0 -2 -28 -19 -11
-36 35 -25 66 -31 69 -45 25z"/>
<path d="M4445 1179 c0 -46 3 -59 15 -59 11 0 16 9 15 28 0 22 5 28 29 30 27
3 28 2 24 -27 -3 -23 -1 -31 11 -31 25 0 23 107 -1 114 -15 3 -17 -1 -12 -20
6 -22 3 -24 -26 -24 -29 0 -32 3 -26 23 4 17 1 23 -12 24 -14 1 -17 -8 -17
-58z"/>
<path d="M4611 1205 c-7 -22 -20 -50 -27 -62 -12 -20 -12 -23 0 -23 7 0 16 9
19 20 3 11 13 20 22 20 9 0 19 -9 22 -20 4 -16 14 -20 53 -20 33 0 50 5 54 15
8 21 -3 44 -25 56 -29 15 -23 32 9 24 26 -6 26 -6 9 12 -13 13 -21 15 -34 7
-27 -17 -26 -32 1 -57 31 -29 33 -47 6 -47 -11 0 -20 6 -20 13 0 8 -4 7 -11
-3 -6 -8 -12 -11 -15 -5 -2 6 -15 33 -27 60 l-24 50 -12 -40z"/>
<path d="M4770 1228 c0 -4 4 -9 9 -12 4 -3 14 -26 21 -51 7 -25 16 -45 19 -45
4 0 13 17 21 38 l14 37 14 -37 c8 -21 18 -38 22 -38 4 0 13 20 20 45 7 25 17
48 21 51 14 8 10 21 -6 21 -8 0 -15 -10 -16 -21 0 -12 -4 -30 -8 -41 -7 -18
-10 -15 -26 20 l-17 40 -18 -40 -18 -40 -8 30 c-4 17 -7 35 -6 40 1 6 -7 11
-18 11 -11 0 -20 -4 -20 -8z"/>
<path d="M4970 1232 c-11 -5 -15 -23 -15 -60 0 -40 4 -52 15 -52 12 0 15 13
15 60 0 33 0 60 0 59 0 0 -7 -3 -15 -7z"/>
<path d="M2445 970 c0 -57 1 -60 25 -60 44 0 53 13 45 61 -8 47 -18 59 -50 59
-18 0 -20 -7 -20 -60z m45 24 c0 -8 -4 -14 -10 -14 -5 0 -10 9 -10 21 0 11 5
17 10 14 6 -3 10 -13 10 -21z m8 -52 c2 -15 -2 -22 -12 -22 -11 0 -16 9 -16
26 0 31 23 28 28 -4z"/>
<path d="M2545 970 l0 -60 33 0 c17 0 32 4 32 9 0 5 -9 7 -20 4 -16 -4 -20 0
-20 22 0 22 3 25 20 20 11 -4 20 -2 20 4 0 6 -9 11 -20 11 -11 0 -20 7 -20 15
0 8 9 15 20 15 11 0 20 5 20 10 0 6 -15 10 -32 10 l-33 0 0 -60z"/>
<path d="M2625 1020 c-3 -5 4 -10 15 -10 20 0 22 -4 18 -50 -3 -48 -2 -50 22
-49 14 0 19 3 13 6 -8 3 -13 23 -13 48 0 38 3 43 25 48 28 5 38 -7 50 -60 9
-46 22 -49 36 -8 16 43 25 44 34 5 10 -44 22 -45 35 -3 7 21 19 48 26 61 13
20 13 22 -6 22 -12 0 -19 -4 -16 -9 3 -5 1 -23 -6 -41 l-11 -33 -15 36 c-17
45 -28 47 -37 7 -9 -40 -23 -38 -31 5 l-6 35 -64 0 c-34 0 -66 -4 -69 -10z"/>
<path d="M2915 970 c0 -58 1 -60 27 -60 15 0 30 5 34 11 4 8 0 9 -15 4 -18 -5
-21 -2 -21 20 0 20 4 26 15 21 8 -3 15 -1 15 4 0 6 -7 10 -15 10 -8 0 -15 7
-15 15 0 8 7 15 15 15 8 0 15 5 15 10 0 6 -12 10 -27 10 -27 0 -28 -1 -28 -60z"/>
<path d="M3005 970 l0 -60 33 0 c17 0 32 4 32 9 0 5 -9 7 -20 4 -16 -4 -20 0
-20 22 0 22 3 25 20 20 11 -4 20 -2 20 4 0 6 -9 11 -20 11 -11 0 -20 7 -20 15
0 8 9 15 20 15 11 0 20 5 20 10 0 6 -15 10 -32 10 l-33 0 0 -60z"/>
<path d="M3098 971 c-2 -50 0 -61 12 -61 12 0 15 9 12 38 l-4 37 39 -38 c22
-20 42 -34 46 -31 13 13 8 114 -6 114 -9 0 -11 -13 -9 -42 l4 -43 -45 44 -45
43 -4 -61z"/>
<path d="M4006 1007 c-26 -19 -24 -67 4 -89 25 -20 71 -21 77 -2 2 7 -6 10
-22 7 -33 -7 -55 12 -55 48 0 22 6 30 25 35 15 4 32 1 40 -6 12 -10 15 -9 15
4 0 20 -58 22 -84 3z"/>
<path d="M4128 1008 c-30 -24 -31 -56 -4 -83 30 -30 59 -32 86 -5 54 54 -22
135 -82 88z m72 -19 c24 -44 -10 -90 -51 -69 -22 12 -27 75 -6 83 26 11 47 6
57 -14z"/>
<path d="M4248 960 c-2 -49 0 -60 12 -60 12 0 15 9 12 43 l-4 42 39 -37 c21
-21 42 -38 46 -38 4 0 7 23 7 50 0 28 5 50 11 50 5 0 19 -22 31 -50 11 -27 24
-50 27 -50 4 0 19 25 33 55 17 36 22 55 13 55 -6 0 -18 -19 -24 -42 l-13 -42
-14 24 c-7 14 -13 33 -14 43 0 13 -9 17 -38 17 l-38 0 4 -42 3 -43 -38 43
c-21 23 -41 42 -45 42 -3 0 -8 -27 -10 -60z"/>
<path d="M4505 960 l0 -60 33 0 c21 0 32 5 32 14 0 9 -7 12 -20 9 -16 -4 -20
0 -20 17 0 15 4 20 15 17 8 -4 17 -2 20 3 4 6 -3 10 -14 10 -15 0 -21 6 -21
21 0 16 4 19 20 14 11 -4 20 -2 20 4 0 6 -15 11 -32 11 l-33 0 0 -60z"/>
<path d="M4598 960 c-2 -50 0 -60 13 -60 14 0 16 6 8 37 -11 52 -2 54 33 11
43 -55 58 -50 58 17 0 38 -4 55 -13 55 -9 0 -12 -13 -9 -42 l3 -43 -41 43
c-22 23 -42 42 -44 42 -3 0 -6 -27 -8 -60z"/>
<path d="M4725 1010 c-4 -6 4 -9 17 -7 21 2 23 -2 23 -50 -1 -42 2 -53 15 -53
14 0 15 8 10 50 -7 53 -2 64 24 54 9 -3 16 -1 16 5 0 14 -96 15 -105 1z"/>
<path d="M4845 960 c0 -47 3 -60 15 -60 12 0 15 13 15 60 0 47 -3 60 -15 60
-12 0 -15 -13 -15 -60z"/>
<path d="M4916 1001 c-25 -28 -17 -72 17 -91 24 -13 30 -13 55 0 33 19 42 69
17 94 -22 22 -68 20 -89 -3z m72 -3 c20 -20 15 -66 -9 -78 -16 -9 -25 -8 -40
6 -33 29 -19 84 21 84 9 0 21 -5 28 -12z"/>
<path d="M5050 978 c0 -26 -3 -53 -6 -62 -4 -10 -1 -16 9 -16 12 0 14 9 10 43
l-5 42 45 -44 45 -43 4 61 c3 55 1 61 -16 61 -16 0 -17 -3 -8 -12 7 -7 12 -26
12 -42 l0 -30 -45 44 -45 44 0 -46z"/>
<path d="M880 990 c0 -16 7 -20 30 -20 l30 0 0 -140 0 -140 30 0 30 0 0 160 0
160 -60 0 c-53 0 -60 -2 -60 -20z"/>
<path d="M1181 898 c-39 -62 -71 -122 -71 -135 0 -22 3 -23 75 -23 73 0 75 -1
75 -25 0 -20 5 -25 25 -25 20 0 25 5 25 25 0 16 6 25 15 25 9 0 15 9 15 25 0
16 -6 25 -15 25 -12 0 -15 19 -15 110 l0 110 -29 0 c-25 0 -36 -12 -100 -112z
m76 -105 c-3 -2 -23 -3 -46 -1 l-41 3 43 65 42 65 3 -64 c2 -35 1 -65 -1 -68z"/>
<path d="M2475 820 c-4 -6 -4 -22 -1 -35 3 -13 2 -27 -4 -30 -17 -11 -11 -44
10 -55 33 -18 70 10 59 45 -1 6 -3 26 -3 45 -1 30 -5 35 -28 38 -14 2 -29 -2
-33 -8z m45 -20 c0 -11 -4 -20 -9 -20 -13 0 -32 26 -24 33 13 14 33 6 33 -13z
m0 -55 c13 -16 6 -35 -15 -35 -18 0 -28 17 -21 35 7 19 20 19 36 0z"/>
<path d="M2624 814 c-16 -13 -16 -15 -1 -10 15 5 17 -2 17 -44 0 -28 -4 -50
-10 -50 -5 0 -10 -3 -10 -7 0 -5 11 -8 25 -8 17 0 24 4 20 13 -3 8 -5 38 -5
68 0 58 -5 63 -36 38z"/>
<path d="M2717 823 c-14 -13 -6 -42 12 -48 24 -7 37 -43 22 -58 -9 -9 -17 -8
-31 1 -16 10 -20 10 -20 -2 0 -17 24 -28 45 -20 39 15 42 77 4 89 -28 9 -23
28 6 23 17 -4 25 -1 25 8 0 14 -51 20 -63 7z"/>
<path d="M2875 763 c-10 -27 -23 -51 -29 -55 -7 -5 -5 -8 6 -8 9 0 20 9 23 20
3 11 13 20 22 20 8 0 17 -9 20 -20 4 -14 14 -20 34 -20 16 0 29 5 29 11 0 6
-8 8 -19 4 -15 -5 -22 3 -37 45 -10 27 -21 50 -25 50 -3 0 -14 -21 -24 -47z
m30 -3 c3 -5 1 -10 -4 -10 -6 0 -11 5 -11 10 0 6 2 10 4 10 3 0 8 -4 11 -10z"/>
<path d="M3020 781 c0 -16 -4 -41 -10 -55 -7 -21 -6 -26 5 -26 10 0 15 11 15
33 l0 32 20 -32 c11 -18 22 -33 25 -33 3 0 11 13 16 30 12 34 29 31 29 -5 0
-12 7 -26 16 -29 12 -5 15 -2 9 11 -4 10 -10 37 -12 61 -3 23 -9 42 -13 42 -4
0 -15 -19 -26 -41 l-18 -41 -20 41 c-23 48 -36 52 -36 12z"/>
<path d="M4253 800 c-30 -12 -39 -54 -19 -85 13 -20 25 -25 56 -25 31 0 40 4
40 17 0 13 -3 14 -12 5 -19 -19 -46 -14 -64 13 -24 36 -10 65 31 65 18 0 36
-6 38 -12 4 -8 6 -7 6 3 1 27 -34 36 -76 19z"/>
<path d="M4355 750 l0 -60 33 0 c17 0 32 4 32 9 0 5 -9 7 -20 4 -15 -4 -20 0
-20 16 0 14 6 21 20 21 11 0 20 5 20 10 0 6 -9 10 -20 10 -12 0 -20 7 -20 16
0 11 6 15 20 11 12 -3 20 0 20 7 0 7 -15 13 -32 14 l-33 2 0 -60z"/>
<path d="M4448 751 c-2 -50 0 -61 12 -61 12 0 15 9 12 38 l-4 37 39 -37 c21
-21 42 -38 46 -38 4 0 7 27 7 60 0 45 -4 60 -14 60 -11 0 -13 -10 -9 -42 l5
-43 -45 44 -45 43 -4 -61z"/>
<path d="M4580 798 c0 -5 9 -8 21 -8 19 0 21 -5 17 -50 -2 -39 0 -50 12 -50
12 0 14 11 11 51 -3 49 -2 52 19 46 13 -3 20 -1 18 5 -4 12 -98 17 -98 6z"/>
<path d="M4695 750 c0 -49 3 -60 17 -60 11 0 15 6 11 20 -3 13 0 20 8 20 8 0
20 -9 27 -20 10 -16 23 -20 67 -20 30 0 55 4 55 9 0 5 -9 7 -20 4 -15 -4 -20
0 -20 16 0 12 6 21 15 21 8 0 15 5 15 10 0 6 -7 10 -15 10 -8 0 -15 7 -15 16
0 10 6 14 15 10 9 -3 15 0 15 9 0 11 -9 15 -28 13 -28 -2 -28 -3 -24 -55 4
-42 1 -53 -10 -53 -25 0 -48 33 -41 59 7 27 -17 51 -51 51 -19 0 -21 -6 -21
-60z m55 20 c0 -11 -7 -20 -15 -20 -8 0 -15 9 -15 20 0 11 7 20 15 20 8 0 15
-9 15 -20z"/>
<path d="M2560 770 c0 -5 5 -10 10 -10 6 0 10 5 10 10 0 6 -4 10 -10 10 -5 0
-10 -4 -10 -10z"/>
<path d="M2566 721 c-4 -5 -2 -12 3 -15 5 -4 12 -2 15 3 4 5 2 12 -3 15 -5 4
-12 2 -15 -3z"/>
<path d="M3160 710 c0 -5 7 -10 15 -10 8 0 15 5 15 10 0 6 -7 10 -15 10 -8 0
-15 -4 -15 -10z"/>
<path d="M4900 694 c0 -8 5 -12 10 -9 6 3 10 10 10 16 0 5 -4 9 -10 9 -5 0
-10 -7 -10 -16z"/>
<path d="M2390 600 c-6 -11 -8 -25 -5 -30 3 -5 1 -11 -5 -15 -5 -3 -10 -19
-10 -35 0 -33 11 -38 90 -38 46 1 51 2 32 11 -19 9 -22 16 -17 39 5 21 3 28
-8 28 -11 0 -13 -7 -10 -22 5 -21 4 -21 -26 6 -17 17 -31 35 -31 42 0 23 23
27 37 8 14 -19 15 -19 11 1 -5 28 -44 32 -58 5z m29 -74 c18 -20 20 -24 7 -29
-20 -8 -47 19 -40 38 8 19 6 19 33 -9z"/>
<path d="M2566 604 c-19 -18 -19 -20 -6 -45 6 -10 20 -19 30 -19 26 0 25 -8
-2 -37 -12 -13 -17 -23 -11 -23 17 0 63 59 63 81 0 52 -42 76 -74 43z m54 -29
c0 -19 -27 -26 -40 -9 -18 20 6 50 26 33 8 -6 14 -17 14 -24z"/>
<path d="M2709 604 c-7 -9 -14 -33 -14 -54 0 -42 18 -70 46 -70 23 0 39 29 39
70 0 62 -40 92 -71 54z m51 -53 c0 -69 -33 -81 -46 -17 -8 44 11 83 32 65 8
-6 14 -28 14 -48z"/>
<path d="M2806 598 c-43 -61 10 -154 56 -98 10 12 18 34 18 49 0 31 -25 71
-45 71 -8 0 -21 -10 -29 -22z m54 -54 c0 -42 -24 -64 -39 -35 -25 47 -2 123
26 84 7 -9 13 -31 13 -49z"/>
<path d="M618 514 c2 -57 -1 -90 -9 -100 -19 -23 -4 -26 17 -3 14 16 20 41 24
105 5 79 4 84 -15 84 -19 0 -20 -6 -17 -86z"/>
<path d="M692 533 c8 -71 23 -93 63 -93 41 0 57 23 64 93 l7 67 -25 -1 c-15 0
-20 -3 -13 -6 18 -7 16 -108 -4 -127 -39 -40 -67 -7 -62 74 3 55 1 60 -18 60
-19 0 -20 -3 -12 -67z"/>
<path d="M858 591 c10 -6 13 -28 10 -80 l-3 -71 43 0 c28 0 42 4 42 13 0 9
-10 12 -30 9 l-30 -4 0 65 c0 43 4 67 13 70 6 3 -4 6 -23 6 -23 0 -30 -2 -22
-8z"/>
<path d="M971 558 c24 -34 30 -51 27 -80 -3 -34 -1 -38 19 -38 20 0 22 3 12
18 -15 24 -6 58 25 105 25 37 25 37 4 37 -12 0 -19 -3 -15 -6 9 -9 -22 -66
-32 -60 -5 3 -14 19 -21 36 -8 18 -20 30 -31 30 -17 0 -15 -5 12 -42z"/>
<path d="M1157 593 c-4 -3 -7 -13 -7 -22 0 -12 3 -11 14 4 19 27 46 13 46 -24
0 -19 -11 -43 -30 -64 -16 -19 -30 -38 -30 -41 0 -4 19 -6 42 -4 34 2 43 7 45
23 2 11 0 14 -3 8 -3 -7 -17 -13 -31 -13 l-25 0 25 30 c33 39 41 64 27 90 -10
19 -58 28 -73 13z"/>
<path d="M1276 584 c-10 -10 -16 -33 -16 -64 0 -83 58 -112 86 -43 33 79 -19
158 -70 107z m58 -70 c-1 -56 -19 -78 -40 -50 -17 24 -19 97 -2 114 21 21 43
-13 42 -64z"/>
<path d="M1380 578 c1 -21 2 -21 11 -5 19 32 49 15 49 -29 0 -8 -16 -31 -35
-53 -19 -21 -35 -41 -35 -45 0 -3 20 -6 44 -6 31 0 46 5 50 16 9 24 7 29 -6
16 -12 -12 -48 -17 -48 -6 0 3 11 19 25 36 42 50 29 98 -27 98 -22 0 -28 -4
-28 -22z"/>
<path d="M1497 593 c-14 -13 -7 -25 8 -13 18 15 45 6 45 -13 0 -8 -7 -20 -16
-28 -14 -11 -14 -13 0 -21 9 -5 16 -20 16 -32 0 -31 -30 -43 -47 -20 -12 16
-13 16 -13 -4 0 -29 42 -30 70 -2 24 24 25 43 5 60 -11 9 -12 16 -3 30 17 26
3 50 -30 50 -16 0 -32 -3 -35 -7z"/>
<path d="M2976 566 c-9 -21 -16 -42 -16 -47 0 -4 -7 -15 -16 -23 -14 -15 -14
-16 5 -16 14 0 21 6 21 20 0 13 7 20 19 20 11 0 23 -9 26 -20 4 -13 15 -20 30
-20 26 0 41 15 25 25 -5 3 -10 1 -10 -4 0 -28 -20 -6 -42 47 l-25 57 -17 -39z
m24 -26 c0 -5 -2 -10 -4 -10 -3 0 -8 5 -11 10 -3 6 -1 10 4 10 6 0 11 -4 11
-10z"/>
<path d="M3117 580 c-14 -65 -15 -100 -3 -100 8 0 11 10 8 30 -6 40 10 38 30
-2 l15 -33 21 40 21 40 1 -37 c0 -33 3 -38 23 -37 12 0 16 3 10 6 -7 2 -13 19
-14 36 -1 18 -4 43 -8 56 -6 23 -8 22 -25 -17 -11 -23 -22 -42 -26 -42 -3 0
-15 19 -27 43 -20 40 -21 41 -26 17z"/>
<path d="M4257 570 c-15 -69 -16 -100 -2 -100 11 0 13 8 9 30 -8 36 8 40 24 5
15 -34 28 -31 43 8 l13 32 4 -30 c4 -28 16 -44 35 -45 4 0 3 8 -2 18 -5 9 -14
37 -19 62 l-9 45 -19 -42 c-10 -24 -21 -43 -25 -43 -3 0 -14 19 -26 43 -20 40
-21 41 -26 17z"/>
<path d="M4406 553 c17 -25 23 -45 19 -60 -4 -18 -1 -23 13 -23 15 0 18 6 14
31 -3 21 2 40 17 60 15 21 18 29 8 29 -8 0 -19 -12 -26 -27 l-13 -28 -14 28
c-8 15 -21 27 -29 27 -11 0 -8 -10 11 -37z"/>
<path d="M4507 583 c-14 -13 -6 -42 14 -57 30 -20 19 -52 -12 -35 -17 9 -20 8
-17 -3 10 -30 68 -15 68 18 0 8 -11 24 -25 36 -27 23 -24 42 6 33 11 -4 19 -2
19 4 0 12 -43 15 -53 4z"/>
<path d="M4597 572 c-23 -25 -21 -58 3 -82 25 -25 51 -25 80 -2 25 20 30 63
10 87 -17 21 -73 19 -93 -3z m72 -6 c7 -8 11 -27 9 -43 -3 -24 -8 -28 -33 -28
-23 0 -32 6 -39 27 -16 46 33 80 63 44z"/>
<path d="M4725 530 c0 -51 3 -60 18 -60 14 0 16 5 11 25 -8 32 6 32 36 0 18
-20 31 -24 68 -22 25 1 47 7 49 14 3 7 -3 9 -16 6 -17 -4 -21 -1 -21 17 0 16
4 20 15 16 8 -3 15 -1 15 4 0 6 -7 10 -15 10 -9 0 -15 9 -15 21 0 15 5 19 15
15 8 -3 15 -1 15 4 0 6 -17 10 -37 9 -21 0 -32 -3 -25 -6 14 -5 17 -89 3 -97
-19 -12 -46 23 -46 61 0 36 -2 38 -35 41 l-35 3 0 -61z m50 25 c0 -10 -6 -20
-12 -22 -8 -3 -13 5 -13 22 0 17 5 25 13 23 6 -3 12 -13 12 -23z"/>
<path d="M2660 560 c0 -5 5 -10 10 -10 6 0 10 5 10 10 0 6 -4 10 -10 10 -5 0
-10 -4 -10 -10z"/>
<path d="M2660 500 c0 -5 5 -10 10 -10 6 0 10 5 10 10 0 6 -4 10 -10 10 -5 0
-10 -4 -10 -10z"/>
<path d="M3260 495 c0 -8 5 -15 10 -15 6 0 10 7 10 15 0 8 -4 15 -10 15 -5 0
-10 -7 -10 -15z"/>
</g>
</svg>
